HIERARCHY
ROOT Hips
{
  OFFSET -1.29455 93.9526 21.1244
  CHANNELS 6 Xposition Yposition Zposition Zrotation Xrotation Yrotation
  JOINT Spine
  {
    OFFSET 0 9.9235 -1.2273
    CHANNELS 6 Xposition Yposition Zposition Zrotation Xrotation Yrotation
    JOINT Spine1
    {
      OFFSET -0.0001 11.6454 -1.4223
      CHANNELS 6 Xposition Yposition Zposition Zrotation Xrotation Yrotation
      JOINT Spine2
      {
        OFFSET 0.0001 13.3602 -1.6265
        CHANNELS 6 Xposition Yposition Zposition Zrotation Xrotation Yrotation
        JOINT Neck
        {
          OFFSET 0 15.0325 0.7929
          CHANNELS 6 Xposition Yposition Zposition Zrotation Xrotation Yrotation
          JOINT Head
          {
            OFFSET 0 10.3218 3.1424
            CHANNELS 6 Xposition Yposition Zposition Zrotation Xrotation Yrotation
            JOINT HeadTop_End
            {
              OFFSET 0.0002 18.4747 6.6364
              CHANNELS 6 Xposition Yposition Zposition Zrotation Xrotation Yrotation
              End Site
              {
                OFFSET 0 0 0
              }
            }
            JOINT LeftEye
            {
              OFFSET 2.9479 7.6817 9.1207
              CHANNELS 6 Xposition Yposition Zposition Zrotation Xrotation Yrotation
              End Site
              {
                OFFSET 0 0 0
              }
            }
            JOINT RightEye
            {
              OFFSET -2.9445 7.6817 9.1205
              CHANNELS 6 Xposition Yposition Zposition Zrotation Xrotation Yrotation
              End Site
              {
                OFFSET 0 0 0
              }
            }
          }
        }
        JOINT LeftShoulder
        {
          OFFSET 6.1058 9.1104 0.7056
          CHANNELS 6 Xposition Yposition Zposition Zrotation Xrotation Yrotation
          JOINT LeftArm
          {
            OFFSET 12.655 -0.2659 -2.6009
            CHANNELS 6 Xposition Yposition Zposition Zrotation Xrotation Yrotation
            JOINT LeftForeArm
            {
              OFFSET 27.4047 0 0
              CHANNELS 6 Xposition Yposition Zposition Zrotation Xrotation Yrotation
              JOINT LeftHand
              {
                OFFSET 27.6145 0 0
                CHANNELS 6 Xposition Yposition Zposition Zrotation Xrotation Yrotation
                JOINT LeftHandMiddle1
                {
                  OFFSET 12.7755 0 0
                  CHANNELS 6 Xposition Yposition Zposition Zrotation Xrotation Yrotation
                  JOINT LeftHandMiddle2
                  {
                    OFFSET 3.614 0 0
                    CHANNELS 6 Xposition Yposition Zposition Zrotation Xrotation Yrotation
                    JOINT LeftHandMiddle3
                    {
                      OFFSET 3.4598 0 0
                      CHANNELS 6 Xposition Yposition Zposition Zrotation Xrotation Yrotation
                      End Site
                      {
                        OFFSET 3.6802 0 0
                      }
                    }
                  }
                }
                JOINT LeftHandThumb1
                {
                  OFFSET 3.7888 -2.167 3.0031
                  CHANNELS 6 Xposition Yposition Zposition Zrotation Xrotation Yrotation
                  JOINT LeftHandThumb2
                  {
                    OFFSET 3.6754 -2.122 2.122
                    CHANNELS 6 Xposition Yposition Zposition Zrotation Xrotation Yrotation
                    JOINT LeftHandThumb3
                    {
                      OFFSET 3.3944 -1.9597 1.9598
                      CHANNELS 6 Xposition Yposition Zposition Zrotation Xrotation Yrotation
                      End Site
                      {
                        OFFSET 2.6794 -1.5469 1.5469
                      }
                    }
                  }
                }
                JOINT LeftHandIndex1
                {
                  OFFSET 12.2666 -0.2317 2.8221
                  CHANNELS 6 Xposition Yposition Zposition Zrotation Xrotation Yrotation
                  JOINT LeftHandIndex2
                  {
                    OFFSET 3.892 0 0
                    CHANNELS 6 Xposition Yposition Zposition Zrotation Xrotation Yrotation
                    JOINT LeftHandIndex3
                    {
                      OFFSET 3.4152 0 0
                      CHANNELS 6 Xposition Yposition Zposition Zrotation Xrotation Yrotation
                      End Site
                      {
                        OFFSET 3.078 0 0
                      }
                    }
                  }
                }
                JOINT LeftHandRing1
                {
                  OFFSET 12.147 0.0099 -2.2166
                  CHANNELS 6 Xposition Yposition Zposition Zrotation Xrotation Yrotation
                  JOINT LeftHandRing2
                  {
                    OFFSET 3.6012 0 0
                    CHANNELS 6 Xposition Yposition Zposition Zrotation Xrotation Yrotation
                    JOINT LeftHandRing3
                    {
                      OFFSET 3.3073 0 0
                      CHANNELS 6 Xposition Yposition Zposition Zrotation Xrotation Yrotation
                      End Site
                      {
                        OFFSET 3.6601 0 0
                      }
                    }
                  }
                }
                JOINT LeftHandPinky1
                {
                  OFFSET 10.9082 -0.2264 -4.7258
                  CHANNELS 6 Xposition Yposition Zposition Zrotation Xrotation Yrotation
                  JOINT LeftHandPinky2
                  {
                    OFFSET 4.1367 0 0
                    CHANNELS 6 Xposition Yposition Zposition Zrotation Xrotation Yrotation
                    JOINT LeftHandPinky3
                    {
                      OFFSET 2.5948 0 0
                      CHANNELS 6 Xposition Yposition Zposition Zrotation Xrotation Yrotation
                      End Site
                      {
                        OFFSET 2.9239 0 0
                      }
                    }
                  }
                }
              }
            }
          }
        }
        JOINT RightShoulder
        {
          OFFSET -6.1057 9.1105 0.7056
          CHANNELS 6 Xposition Yposition Zposition Zrotation Xrotation Yrotation
          JOINT RightArm
          {
            OFFSET -12.655 -0.266 -2.6009
            CHANNELS 6 Xposition Yposition Zposition Zrotation Xrotation Yrotation
            JOINT RightForeArm
            {
              OFFSET -27.4047 0 0
              CHANNELS 6 Xposition Yposition Zposition Zrotation Xrotation Yrotation
              JOINT RightHand
              {
                OFFSET -27.6145 0 0
                CHANNELS 6 Xposition Yposition Zposition Zrotation Xrotation Yrotation
                JOINT RightHandMiddle1
                {
                  OFFSET -12.7755 0 0
                  CHANNELS 6 Xposition Yposition Zposition Zrotation Xrotation Yrotation
                  JOINT RightHandMiddle2
                  {
                    OFFSET -3.614 0 0
                    CHANNELS 6 Xposition Yposition Zposition Zrotation Xrotation Yrotation
                    JOINT RightHandMiddle3
                    {
                      OFFSET -3.4598 0 0
                      CHANNELS 6 Xposition Yposition Zposition Zrotation Xrotation Yrotation
                      End Site
                      {
                        OFFSET -3.6802 0 0
                      }
                    }
                  }
                }
                JOINT RightHandThumb1
                {
                  OFFSET -3.7888 -2.167 3.0031
                  CHANNELS 6 Xposition Yposition Zposition Zrotation Xrotation Yrotation
                  JOINT RightHandThumb2
                  {
                    OFFSET -3.6754 -2.122 2.122
                    CHANNELS 6 Xposition Yposition Zposition Zrotation Xrotation Yrotation
                    JOINT RightHandThumb3
                    {
                      OFFSET -3.3944 -1.9597 1.9598
                      CHANNELS 6 Xposition Yposition Zposition Zrotation Xrotation Yrotation
                      End Site
                      {
                        OFFSET -2.6794 -1.5469 1.5469
                      }
                    }
                  }
                }
                JOINT RightHandIndex1
                {
                  OFFSET -12.2666 -0.2317 2.8221
                  CHANNELS 6 Xposition Yposition Zposition Zrotation Xrotation Yrotation
                  JOINT RightHandIndex2
                  {
                    OFFSET -3.892 0 0
                    CHANNELS 6 Xposition Yposition Zposition Zrotation Xrotation Yrotation
                    JOINT RightHandIndex3
                    {
                      OFFSET -3.4152 0 0
                      CHANNELS 6 Xposition Yposition Zposition Zrotation Xrotation Yrotation
                      End Site
                      {
                        OFFSET -3.078 0 0
                      }
                    }
                  }
                }
                JOINT RightHandRing1
                {
                  OFFSET -12.147 0.0099 -2.2166
                  CHANNELS 6 Xposition Yposition Zposition Zrotation Xrotation Yrotation
                  JOINT RightHandRing2
                  {
                    OFFSET -3.6012 0 0
                    CHANNELS 6 Xposition Yposition Zposition Zrotation Xrotation Yrotation
                    JOINT RightHandRing3
                    {
                      OFFSET -3.3073 0 0
                      CHANNELS 6 Xposition Yposition Zposition Zrotation Xrotation Yrotation
                      End Site
                      {
                        OFFSET -3.6601 0 0
                      }
                    }
                  }
                }
                JOINT RightHandPinky1
                {
                  OFFSET -10.9082 -0.2264 -4.7258
                  CHANNELS 6 Xposition Yposition Zposition Zrotation Xrotation Yrotation
                  JOINT RightHandPinky2
                  {
                    OFFSET -4.1367 0 0
                    CHANNELS 6 Xposition Yposition Zposition Zrotation Xrotation Yrotation
                    JOINT RightHandPinky3
                    {
                      OFFSET -2.5948 0 0
                      CHANNELS 6 Xposition Yposition Zposition Zrotation Xrotation Yrotation
                      End Site
                      {
                        OFFSET -2.9239 0 0
                      }
                    }
                  }
                }
              }
            }
          }
        }
      }
    }
  }
  JOINT RightUpLeg
  {
    OFFSET -9.1245 -6.6564 -0.0554
    CHANNELS 6 Xposition Yposition Zposition Zrotation Xrotation Yrotation
    JOINT RightLeg
    {
      OFFSET -0.2447 -40.5954 -0.5145
      CHANNELS 6 Xposition Yposition Zposition Zrotation Xrotation Yrotation
      JOINT RightFoot
      {
        OFFSET 0.2447 -42.0479 -2.0602
        CHANNELS 6 Xposition Yposition Zposition Zrotation Xrotation Yrotation
        JOINT RightToeBase
        {
          OFFSET -0.3734 -10.4922 12.6407
          CHANNELS 6 Xposition Yposition Zposition Zrotation Xrotation Yrotation
          End Site
          {
            OFFSET 0 0 9.9925
          }
        }
      }
    }
  }
  JOINT LeftUpLeg
  {
    OFFSET 9.1245 -6.6564 -0.0554
    CHANNELS 6 Xposition Yposition Zposition Zrotation Xrotation Yrotation
    JOINT LeftLeg
    {
      OFFSET 0.2447 -40.5954 -0.517
      CHANNELS 6 Xposition Yposition Zposition Zrotation Xrotation Yrotation
      JOINT LeftFoot
      {
        OFFSET -0.2447 -42.048 -2.0576
        CHANNELS 6 Xposition Yposition Zposition Zrotation Xrotation Yrotation
        JOINT LeftToeBase
        {
          OFFSET 0.3734 -10.4922 12.6407
          CHANNELS 6 Xposition Yposition Zposition Zrotation Xrotation Yrotation
          End Site
          {
            OFFSET 0 0 9.9925
          }
        }
      }
    }
  }
}
MOTION
Frames:	4
Frame Time:	0.0166667
-3.44337 85.6518 72.8308 0.898583 11.2696 30.0149 -3.55271e-015 9.9235 -1.2273 1.53413 10.9945 -8.44661 -0.0001 11.6454 -1.4223 2.4022 4.0893 -1.27557 0.0001 13.3602 -1.6265 2.37266 4.22594 -1.242 -1.77636e-015 15.0325 0.7929 6.18222 7.25491 -3.8227 -3.55271e-015 10.3218 3.1424 -8.31833 -1.2674 -6.49861 0.0002 18.4747 6.6364 -7.95139e-016 -6.36111e-015 1.59028e-015 2.9479 7.6817 9.1207 -7.95139e-016 -6.36111e-015 1.59028e-015 -2.9445 7.6817 9.1205 -7.95139e-016 -6.36111e-015 1.59028e-015 6.1058 9.1104 0.7056 8.76444 -5.93396 -12.0268 12.655 -0.2659 -2.6009 -56.8814 39.6401 -13.872 27.4047 0 0 -5.88783e-005 -1.36486e-005 -68.6902 27.6145 0 0 -15.2552 20.2559 -0.116665 12.7755 -1.42109e-014 -7.10543e-015 -57.5487 -3.2516 6.81886 3.614 -7.10543e-015 0 -81.8231 -5.94437 6.85755 3.4598 0 -1.77636e-015 -76.8442 -5.3791 6.7523 3.7888 -2.167 3.0031 4.95652 7.79948 15.3329 3.6754 -2.122 2.122 -13.173 18.8353 7.20789 3.3944 -1.9597 1.9598 10.9937 3.2902 40.6705 12.2666 -0.2317 2.8221 -55.3098 -2.97741 6.5925 3.892 -7.10543e-015 -3.55271e-015 -84.6885 -6.28814 6.89845 3.4152 0 0 -77.7454 -5.45935 6.76971 12.147 0.0099 -2.2166 -60.7387 -3.71356 7.16523 3.6012 -7.10543e-015 0 -77.3282 -5.4101 6.75877 3.3073 0 -5.32907e-015 -75.8685 -5.26481 6.72611 10.9082 -0.2264 -4.7258 -63.1049 -4.11026 11.5653 4.1367 0 3.55271e-015 -74.0569 -1.0676 5.50688 2.5948 0 1.77636e-015 -75.2118 -5.16146 6.69775 -6.1057 9.1105 0.7056 6.43385 2.15985 6.19068 -12.655 -0.266 -2.6009 54.6047 -6.89249 10.2944 -27.4047 0 7.10543e-015 -1.97648e-005 2.81951e-006 49.5892 -27.6145 0 0 6.92989 12.9903 1.78629 -12.7755 0 0 1.08051 0.13721 9.84561 -3.614 0 0 23.6841 -0.588194 -2.80473 -3.4598 1.42109e-014 7.10543e-015 12.8653 -0.175235 -1.55423 -3.7888 -2.167 3.0031 -9.21156 1.27892 -17.1255 -3.6754 -2.122 2.122 1.28246 2.14218 -3.46851 -3.3944 -1.9597 1.9598 -2.46533 -2.84608 2.58227 -12.2666 -0.2317 2.8221 -1.5249 0.153375 11.0118 -3.892 1.42109e-014 0 21.6416 -0.492225 -2.57488 -3.4152 0 7.10543e-015 9.16989 -0.0892012 -1.11234 -12.147 0.0099 -2.2166 3.95604 0.11113 8.9098 -3.6012 0 0 27.4041 -0.7838 -3.21408 -3.3073 -1.42109e-014 7.10543e-015 16.5165 -0.288081 -1.98459 -10.9082 -0.2264 -4.7258 6.09249 0.0882172 8.5069 -4.1367 1.42109e-014 -7.10543e-015 31.3641 -1.02086 -3.63507 -2.5948 0 7.10543e-015 18.4436 -0.358625 -2.20866 -9.1245 -6.6564 -0.0554 -9.73737 -54.1719 -7.98186 -0.2447 -40.5954 -0.5145 -5.10688 65.8532 -3.27153 0.2447 -42.0479 -2.0602 2.53436 -20.8667 -14.1238 -0.3734 -10.4922 12.6407 -6.77863e-008 -3.25599 -1.45015e-006 9.1245 -6.6564 -0.0554 11.4891 -5.19851 17.6753 0.2447 -40.5954 -0.517 14.2715 32.6002 1.65639 -0.2447 -42.048 -2.0576 2.97092 -4.70124 30.9859 0.3734 -10.4922 12.6407 -4.93068e-005 -6.0459 -7.77527e-006 
-3.38871 85.9995 73.8475 0.994912 11.2946 29.7644 0 9.9235 -1.2273 1.63202 10.7977 -8.49614 -0.0001 11.6454 -1.4223 2.40675 4.04942 -1.27828 0.0001 13.3602 -1.6265 2.37669 4.18608 -1.24544 0 15.0325 0.7929 6.30526 7.17442 -3.83747 0 10.3218 3.1424 -8.50806 -1.41011 -6.36362 0.0002 18.4747 6.6364 1.59028e-015 3.18055e-015 -3.18055e-015 2.9479 7.6817 9.1207 1.59028e-015 3.18055e-015 -3.18055e-015 -2.9445 7.6817 9.1205 1.59028e-015 3.18055e-015 -3.18055e-015 6.1058 9.1104 0.7056 8.88366 -5.98156 -12.0335 12.655 -0.2659 -2.6009 -57.2357 40.2907 -13.6049 27.4047 0 -7.10543e-015 3.0103e-005 -4.50152e-006 -68.9294 27.6145 1.42109e-014 0 -15.2176 20.2113 0.120519 12.7755 0 -7.10543e-015 -57.6575 -3.26409 6.83409 3.614 7.10543e-015 0 -81.8297 -5.94516 6.85764 3.4598 0 -3.55271e-015 -76.844 -5.3764 6.75232 3.7888 -2.167 3.0031 4.95451 7.81999 15.3934 3.6754 -2.122 2.122 -13.173 18.8353 7.20789 3.3944 -1.9597 1.9598 10.9927 3.28559 40.6652 12.2666 -0.2317 2.8221 -55.3344 -2.98019 6.61546 3.892 -7.10543e-015 -7.10543e-015 -84.6885 -6.28814 6.89845 3.4152 0 1.77636e-015 -77.7471 -5.45957 6.76976 12.147 0.0099 -2.2166 -60.9537 -3.74076 7.17069 3.6012 0 -3.55271e-015 -77.341 -5.4116 6.75909 3.3073 0 0 -75.8665 -5.26139 6.72609 10.9082 -0.2264 -4.7258 -63.4157 -4.15303 11.5619 4.1367 7.10543e-015 -1.77636e-015 -74.0569 -1.0676 5.50688 2.5948 -1.42109e-014 -1.77636e-015 -75.212 -5.16146 6.69778 -6.1057 9.1105 0.7056 6.60042 2.10973 5.98618 -12.655 -0.266 -2.6009 54.6748 -6.36051 10.1537 -27.4047 0 0 1.04106e-005 6.49319e-007 50.4493 -27.6145 0 -1.42109e-014 6.52472 13.2895 2.11765 -12.7755 0 1.42109e-014 1.34481 0.131386 9.71891 -3.614 0 0 23.548 -0.581556 -2.78951 -3.4598 0 0 13.0667 -0.180743 -1.57816 -3.7888 -2.167 3.0031 -9.18309 1.29172 -17.128 -3.6754 -2.122 2.122 1.28246 2.14218 -3.46851 -3.3944 -1.9597 1.9598 -2.46353 -2.83836 2.56997 -12.2666 -0.2317 2.8221 -1.2079 0.150406 10.8646 -3.892 1.42109e-014 0 21.4017 -0.481473 -2.54766 -3.4152 -1.42109e-014 -1.42109e-014 9.37071 -0.0931533 -1.13647 -12.147 0.0099 -2.2166 4.16236 0.103396 8.80304 -3.6012 0 1.42109e-014 27.3564 -0.781156 -3.2089 -3.3073 0 7.10543e-015 16.7689 -0.296877 -2.01408 -10.9082 -0.2264 -4.7258 6.25436 0.0796151 8.41319 -4.1367 0 0 31.391 -1.02258 -3.63787 -2.5948 1.42109e-014 -7.10543e-015 18.7238 -0.369521 -2.24104 -9.1245 -6.6564 -0.0554 -9.29967 -53.1408 -7.83538 -0.2447 -40.5954 -0.5145 -4.80705 65.367 -3.54326 0.2447 -42.0479 -2.0602 2.22339 -21.4818 -13.9485 -0.3734 -10.4922 12.6407 -4.71954e-006 -3.37975 4.49384e-006 9.1245 -6.6564 -0.0554 10.9837 -5.34993 17.5625 0.2447 -40.5954 -0.517 14.2421 32.3735 1.83236 -0.2447 -42.048 -2.0576 3.07652 -4.77961 30.974 0.3734 -10.4922 12.6407 6.27336e-007 -6.01468 3.74596e-005 
-3.32594 86.357 74.8799 1.06773 11.285 29.47 3.55271e-015 9.9235 -1.2273 1.74262 10.5649 -8.52968 -0.0001 11.6454 -1.4223 2.40775 4.02354 -1.27859 0.0001 13.3602 -1.6265 2.37689 4.16016 -1.24679 1.77636e-015 15.0325 0.7929 6.40471 7.11281 -3.84955 -7.10543e-015 10.3218 3.1424 -8.70685 -1.52814 -6.23954 0.0002 18.4747 6.6364 -7.95139e-016 1.90833e-014 3.18055e-015 2.9479 7.6817 9.1207 -7.95139e-016 1.90833e-014 3.18055e-015 -2.9445 7.6817 9.1205 -7.95139e-016 1.90833e-014 3.18055e-015 6.1058 9.1104 0.7056 9.01256 -6.02658 -12.0211 12.655 -0.2659 -2.6009 -57.628 40.8897 -13.3118 27.4047 0 -1.42109e-014 2.82741e-006 7.76317e-006 -69.1811 27.6145 1.42109e-014 0 -15.1661 20.0829 0.357133 12.7755 1.42109e-014 7.10543e-015 -57.6282 -3.26174 6.8027 3.614 -7.10543e-015 7.10543e-015 -81.8278 -5.94495 6.85762 3.4598 0 -3.55271e-015 -76.8378 -5.37982 6.7525 3.7888 -2.167 3.0031 4.9611 7.84832 15.4847 3.6754 -2.122 2.122 -13.173 18.8353 7.20789 3.3944 -1.9597 1.9598 10.9892 3.27505 40.6538 12.2666 -0.2317 2.8221 -55.2037 -2.96978 6.54322 3.892 0 0 -84.6885 -6.28814 6.89845 3.4152 0 -3.55271e-015 -77.7344 -5.45807 6.76943 12.147 0.0099 -2.2166 -61.0452 -3.75283 7.18584 3.6012 0 0 -77.3465 -5.41227 6.75927 3.3073 0 3.55271e-015 -75.8667 -5.26582 6.72658 10.9082 -0.2264 -4.7258 -63.6102 -4.18136 11.6149 4.1367 -1.42109e-014 1.77636e-015 -74.0569 -1.0676 5.50688 2.5948 0 0 -75.2207 -5.1625 6.69804 -6.1057 9.1105 0.7056 6.7142 2.05756 5.82319 -12.655 -0.266 -2.6009 54.817 -5.86889 9.92082 -27.4047 1.42109e-014 -7.10543e-015 2.84042e-006 -1.834e-005 51.1801 -27.6145 -1.42109e-014 0 6.1565 13.0799 2.36452 -12.7755 0 0 1.52153 0.121594 9.58947 -3.614 0 0 23.2655 -0.567849 -2.75791 -3.4598 0 1.42109e-014 13.2062 -0.184609 -1.59472 -3.7888 -2.167 3.0031 -9.13783 1.33033 -17.1685 -3.6754 -2.122 2.122 1.28246 2.14218 -3.46851 -3.3944 -1.9597 1.9598 -2.45375 -2.79383 2.4994 -12.2666 -0.2317 2.8221 -0.94549 0.139575 10.7231 -3.892 -1.42109e-014 0 21.0015 -0.463853 -2.50219 -3.4152 -1.42109e-014 0 9.51471 -0.096013 -1.15376 -12.147 0.0099 -2.2166 4.23715 0.0951379 8.6834 -3.6012 -1.42109e-014 1.42109e-014 27.1799 -0.771285 -3.18978 -3.3073 0 0 16.9591 -0.303611 -2.03626 -10.9082 -0.2264 -4.7258 6.24235 0.0727542 8.29796 -4.1367 0 7.10543e-015 31.3103 -1.01748 -3.62944 -2.5948 1.42109e-014 0 18.9452 -0.378232 -2.26658 -9.1245 -6.6564 -0.0554 -8.83406 -52.0492 -7.6913 -0.2447 -40.5954 -0.5145 -4.42664 64.8024 -3.90516 0.2447 -42.0479 -2.0602 1.89825 -22.0647 -13.7169 -0.3734 -10.4922 12.6407 4.61219e-006 -3.5631 2.10964e-006 9.1245 -6.6564 -0.0554 10.6186 -5.41826 17.7841 0.2447 -40.5954 -0.517 14.2101 32.0564 2.01272 -0.2447 -42.048 -2.0576 2.97123 -4.73367 30.9183 0.3734 -10.4922 12.6407 6.20394e-006 -5.91811 2.4279e-005 
-3.25634 86.7066 75.9129 1.13834 11.2071 29.1303 0 9.9235 -1.2273 1.85484 10.3025 -8.57356 -0.0001 11.6454 -1.4223 2.41439 4.00741 -1.28039 0.0001 13.3602 -1.6265 2.38239 4.14405 -1.24981 1.77636e-015 15.0325 0.7929 6.49224 7.05823 -3.85574 -3.55271e-015 10.3218 3.1424 -8.91521 -1.63275 -6.09735 0.0002 18.4747 6.6364 -7.95139e-016 -6.36111e-015 1.59028e-015 2.9479 7.6817 9.1207 -7.95139e-016 -6.36111e-015 1.59028e-015 -2.9445 7.6817 9.1205 -7.95139e-016 -6.36111e-015 1.59028e-015 6.1058 9.1104 0.7056 9.15632 -6.06858 -11.97 12.655 -0.2659 -2.6009 -58.1137 41.4407 -12.9157 27.4047 1.42109e-014 -7.10543e-015 3.26189e-005 -7.12736e-006 -69.4448 27.6145 0 1.42109e-014 -15.0639 19.9065 0.527426 12.7755 0 -7.10543e-015 -57.5621 -3.25574 6.77639 3.614 1.42109e-014 3.55271e-015 -81.8237 -5.94448 6.85757 3.4598 0 0 -76.8276 -5.3842 6.75268 3.7888 -2.167 3.0031 4.95226 7.88705 15.5881 3.6754 -2.122 2.122 -13.173 18.8353 7.20789 3.3944 -1.9597 1.9598 10.9848 3.26264 40.6405 12.2666 -0.2317 2.8221 -55.0798 -2.95769 6.47331 3.892 0 0 -84.6885 -6.28814 6.89845 3.4152 0 0 -77.7109 -5.45529 6.76879 12.147 0.0099 -2.2166 -61.0456 -3.75788 7.21013 3.6012 0 3.55271e-015 -77.3467 -5.4123 6.75929 3.3073 1.42109e-014 3.55271e-015 -75.8708 -5.27178 6.72726 10.9082 -0.2264 -4.7258 -63.6655 -4.19933 11.6814 4.1367 0 0 -74.0569 -1.0676 5.50688 2.5948 0 -2.66454e-015 -75.2382 -5.16456 6.69858 -6.1057 9.1105 0.7056 6.7961 2.00865 5.68686 -12.655 -0.266 -2.6009 54.9897 -5.42262 9.63876 -27.4047 0 7.10543e-015 -2.84135e-005 -9.69026e-006 51.8469 -27.6145 -1.42109e-014 0 5.93874 12.596 2.43951 -12.7755 0 0 1.6534 0.108243 9.42295 -3.614 0 0 22.7774 -0.544587 -2.70312 -3.4598 0 0 13.2434 -0.185639 -1.59913 -3.7888 -2.167 3.0031 -9.09818 1.38387 -17.2436 -3.6754 -2.122 2.122 1.28246 2.14218 -3.46851 -3.3944 -1.9597 1.9598 -2.4409 -2.73434 2.40532 -12.2666 -0.2317 2.8221 -0.695923 0.123256 10.5517 -3.892 1.42109e-014 0 20.3633 -0.436376 -2.42938 -3.4152 0 0 9.57192 -0.0971745 -1.16067 -12.147 0.0099 -2.2166 4.22616 0.0846331 8.51634 -3.6012 0 -1.42109e-014 26.8338 -0.752089 -3.15216 -3.3073 0 0 17.0362 -0.30635 -2.04524 -10.9082 -0.2264 -4.7258 6.10548 0.0642024 8.12519 -4.1367 -1.42109e-014 0 31.092 -1.00364 -3.60669 -2.5948 -1.42109e-014 0 19.0511 -0.382437 -2.27878 -9.1245 -6.6564 -0.0554 -8.28277 -50.8904 -7.47817 -0.2447 -40.5954 -0.5145 -4.04921 64.1994 -4.27271 0.2447 -42.0479 -2.0602 1.57312 -22.6256 -13.4638 -0.3734 -10.4922 12.6407 1.01326e-006 -3.77557 7.86388e-006 9.1245 -6.6564 -0.0554 10.2727 -5.45536 17.9507 0.2447 -40.5954 -0.517 14.1792 31.8011 2.11461 -0.2447 -42.048 -2.0576 2.94837 -4.78379 30.8985 0.3734 -10.4922 12.6407 2.52866e-005 -5.75953 2.39433e-005 
